<svg width="128" height="128" viewBox="0 0 128 128" fill="none" xmlns="http://www.w3.org/2000/svg">
    <g clip-path="url(#clip0)">
    <rect width="128" height="128" fill="#151515"/>
    <path d="M75.048 29.424C72.616 29.424 71.016 30.352 70.248 32.208C69.48 34 69.096 36.912 69.096 40.944V56.304H81.768V58.032H69.096V100.272H80.808V102H45.96V100.272H51.24V58.032H45.672V56.304H51.24V55.92C51.24 46.704 53 39.728 56.52 34.992C60.04 30.192 65.928 27.792 74.184 27.792C79.624 27.792 83.528 28.88 85.896 31.056C88.264 33.168 89.448 35.632 89.448 38.448C89.448 41.264 88.712 43.376 87.24 44.784C85.768 46.192 83.816 46.896 81.384 46.896C78.952 46.896 77.064 46.288 75.72 45.072C74.44 43.792 73.8 42.352 73.8 40.752C73.8 39.088 73.992 37.488 74.376 35.952H78.024C79.304 31.6 78.312 29.424 75.048 29.424Z" fill="white"/>
    </g>
    <defs>
    <clipPath id="clip0">
    <rect width="128" height="128" fill="white"/>
    </clipPath>
    </defs>
</svg>
